<svg xmlns="http://www.w3.org/2000/svg" width="1024" height="1024" viewBox="0 0 1024 1024">
  <defs>
    <radialGradient id="bg" cx="50%" cy="42%" r="72%">
      <stop offset="0%" stop-color="#1b1b27"/>
      <stop offset="55%" stop-color="#12121a"/>
      <stop offset="100%" stop-color="#07070b"/>
    </radialGradient>
    <linearGradient id="gilt" gradientUnits="userSpaceOnUse" x1="512" y1="180" x2="512" y2="840">
      <stop offset="0%" stop-color="#f0d79a"/>
      <stop offset="50%" stop-color="#d8b063"/>
      <stop offset="100%" stop-color="#a87f38"/>
    </linearGradient>
    <radialGradient id="halo" cx="50%" cy="50%" r="50%">
      <stop offset="0%" stop-color="#e6c884" stop-opacity="0.22"/>
      <stop offset="70%" stop-color="#e6c884" stop-opacity="0.05"/>
      <stop offset="100%" stop-color="#e6c884" stop-opacity="0"/>
    </radialGradient>
  </defs>

  <rect width="1024" height="1024" rx="220" fill="url(#bg)"/>
  <circle cx="512" cy="512" r="300" fill="url(#halo)"/>
  <circle cx="512" cy="512" r="300" fill="none" stroke="url(#gilt)" stroke-width="9" opacity="0.9"/>
  <circle cx="512" cy="512" r="282" fill="none" stroke="#c8a35c" stroke-width="2" opacity="0.45"/>

  <g stroke="url(#gilt)" stroke-width="7" stroke-linecap="round" opacity="0.85">
    <line x1="512" y1="224" x2="512" y2="252"/>
    <line x1="512" y1="772" x2="512" y2="800"/>
    <line x1="224" y1="512" x2="252" y2="512"/>
    <line x1="772" y1="512" x2="800" y2="512"/>
  </g>
  <g stroke="#c8a35c" stroke-width="5" stroke-linecap="round" opacity="0.6">
    <line x1="308.7" y1="308.7" x2="328" y2="328"/>
    <line x1="715.3" y1="308.7" x2="696" y2="328"/>
    <line x1="308.7" y1="715.3" x2="328" y2="696"/>
    <line x1="715.3" y1="715.3" x2="696" y2="696"/>
  </g>
  <circle cx="512" cy="238" r="11" fill="url(#gilt)"/>

  <g fill="none" stroke="url(#gilt)" stroke-width="30" stroke-linecap="round" stroke-linejoin="round">
    <line x1="452" y1="424" x2="572" y2="424"/>
    <line x1="398" y1="486" x2="626" y2="486"/>
    <path d="M512 486 C 486 560, 452 604, 404 640"/>
    <path d="M512 486 C 540 556, 576 602, 626 638"/>
  </g>
</svg>
